%TF.GenerationSoftware,KiCad,Pcbnew,8.0.3*%
%TF.CreationDate,2025-02-02T16:59:29+13:00*%
%TF.ProjectId,wii-nunchuk-pcb,7769692d-6e75-46e6-9368-756b2d706362,rev?*%
%TF.SameCoordinates,Original*%
%TF.FileFunction,Drillmap*%
%TF.FilePolarity,Positive*%
%FSLAX45Y45*%
G04 Gerber Fmt 4.5, Leading zero omitted, Abs format (unit mm)*
G04 Created by KiCad (PCBNEW 8.0.3) date 2025-02-02 16:59:29*
%MOMM*%
%LPD*%
G01*
G04 APERTURE LIST*
%ADD10C,0.050000*%
%ADD11C,0.200000*%
%ADD12C,0.220000*%
G04 APERTURE END LIST*
D10*
X9006105Y-5831105D02*
X9006105Y-6974105D01*
X9260105Y-7228105D02*
X9387105Y-7228105D01*
X9260105Y-5577105D02*
X9260105Y-5577105D01*
X11038105Y-5577105D02*
X9260105Y-5577105D01*
X11038105Y-5577105D02*
G75*
G02*
X11292115Y-5831105I5J-254005D01*
G01*
X9006105Y-5831105D02*
G75*
G02*
X9260105Y-5577105I254000J0D01*
G01*
X9260105Y-7228105D02*
G75*
G02*
X9006115Y-6974105I5J253995D01*
G01*
X11292105Y-6974105D02*
X11292105Y-5831105D01*
X10911105Y-7228105D02*
X11038105Y-7228105D01*
X11292105Y-6974105D02*
G75*
G02*
X11038105Y-7228105I-253995J-5D01*
G01*
X9431605Y-6570105D02*
X9431605Y-6824105D01*
X9431605Y-6570105D02*
X9531605Y-6570105D01*
X9514105Y-7228105D02*
X9387105Y-7228105D01*
X9531605Y-6370105D02*
X9531605Y-6570105D01*
X9531605Y-6370105D02*
X9831605Y-6370105D01*
X9531605Y-6824105D02*
X9431605Y-6824105D01*
X9531605Y-6824105D02*
X9531605Y-7224105D01*
X9531605Y-7224105D02*
X9514105Y-7228105D01*
X9831605Y-6370105D02*
X9831605Y-7083325D01*
X9854465Y-7106185D02*
X10441205Y-7106185D01*
X10466605Y-6370105D02*
X10466605Y-7080785D01*
X10466605Y-6370105D02*
X10766605Y-6370105D01*
X10766605Y-6370105D02*
X10766605Y-6570105D01*
X10766605Y-6824105D02*
X10766605Y-7224105D01*
X10766605Y-7224105D02*
X10784105Y-7228105D01*
X10784105Y-7228105D02*
X10784105Y-7228105D01*
X10784105Y-7228105D02*
X10784105Y-7228105D01*
X10784105Y-7228105D02*
X10911105Y-7228105D01*
X10866605Y-6570105D02*
X10766605Y-6570105D01*
X10866605Y-6570105D02*
X10866605Y-6824105D01*
X10866605Y-6824105D02*
X10766605Y-6824105D01*
X9854465Y-7106185D02*
G75*
G02*
X9831605Y-7083325I0J22860D01*
G01*
X10466605Y-7080785D02*
G75*
G02*
X10441205Y-7106185I-25400J0D01*
G01*
D11*
D12*
X9150105Y-5721105D02*
X9370105Y-5941105D01*
X9370105Y-5721105D02*
X9150105Y-5941105D01*
X9150105Y-6864105D02*
X9370105Y-7084105D01*
X9370105Y-6864105D02*
X9150105Y-7084105D01*
X10928105Y-5721105D02*
X11148105Y-5941105D01*
X11148105Y-5721105D02*
X10928105Y-5941105D01*
X10928105Y-6864105D02*
X11148105Y-7084105D01*
X11148105Y-6864105D02*
X10928105Y-7084105D01*
D11*
X9264382Y-7542089D02*
X9264382Y-7342089D01*
X9264382Y-7342089D02*
X9312001Y-7342089D01*
X9312001Y-7342089D02*
X9340572Y-7351613D01*
X9340572Y-7351613D02*
X9359620Y-7370660D01*
X9359620Y-7370660D02*
X9369144Y-7389708D01*
X9369144Y-7389708D02*
X9378668Y-7427803D01*
X9378668Y-7427803D02*
X9378668Y-7456375D01*
X9378668Y-7456375D02*
X9369144Y-7494470D01*
X9369144Y-7494470D02*
X9359620Y-7513517D01*
X9359620Y-7513517D02*
X9340572Y-7532565D01*
X9340572Y-7532565D02*
X9312001Y-7542089D01*
X9312001Y-7542089D02*
X9264382Y-7542089D01*
X9464382Y-7542089D02*
X9464382Y-7408755D01*
X9464382Y-7446851D02*
X9473906Y-7427803D01*
X9473906Y-7427803D02*
X9483430Y-7418279D01*
X9483430Y-7418279D02*
X9502477Y-7408755D01*
X9502477Y-7408755D02*
X9521525Y-7408755D01*
X9588191Y-7542089D02*
X9588191Y-7408755D01*
X9588191Y-7342089D02*
X9578668Y-7351613D01*
X9578668Y-7351613D02*
X9588191Y-7361136D01*
X9588191Y-7361136D02*
X9597715Y-7351613D01*
X9597715Y-7351613D02*
X9588191Y-7342089D01*
X9588191Y-7342089D02*
X9588191Y-7361136D01*
X9712001Y-7542089D02*
X9692953Y-7532565D01*
X9692953Y-7532565D02*
X9683430Y-7513517D01*
X9683430Y-7513517D02*
X9683430Y-7342089D01*
X9816763Y-7542089D02*
X9797715Y-7532565D01*
X9797715Y-7532565D02*
X9788191Y-7513517D01*
X9788191Y-7513517D02*
X9788191Y-7342089D01*
X10045334Y-7542089D02*
X10045334Y-7342089D01*
X10045334Y-7342089D02*
X10112001Y-7484946D01*
X10112001Y-7484946D02*
X10178668Y-7342089D01*
X10178668Y-7342089D02*
X10178668Y-7542089D01*
X10359620Y-7542089D02*
X10359620Y-7437327D01*
X10359620Y-7437327D02*
X10350096Y-7418279D01*
X10350096Y-7418279D02*
X10331049Y-7408755D01*
X10331049Y-7408755D02*
X10292953Y-7408755D01*
X10292953Y-7408755D02*
X10273906Y-7418279D01*
X10359620Y-7532565D02*
X10340572Y-7542089D01*
X10340572Y-7542089D02*
X10292953Y-7542089D01*
X10292953Y-7542089D02*
X10273906Y-7532565D01*
X10273906Y-7532565D02*
X10264382Y-7513517D01*
X10264382Y-7513517D02*
X10264382Y-7494470D01*
X10264382Y-7494470D02*
X10273906Y-7475422D01*
X10273906Y-7475422D02*
X10292953Y-7465898D01*
X10292953Y-7465898D02*
X10340572Y-7465898D01*
X10340572Y-7465898D02*
X10359620Y-7456375D01*
X10454858Y-7408755D02*
X10454858Y-7608755D01*
X10454858Y-7418279D02*
X10473906Y-7408755D01*
X10473906Y-7408755D02*
X10512001Y-7408755D01*
X10512001Y-7408755D02*
X10531049Y-7418279D01*
X10531049Y-7418279D02*
X10540572Y-7427803D01*
X10540572Y-7427803D02*
X10550096Y-7446851D01*
X10550096Y-7446851D02*
X10550096Y-7503994D01*
X10550096Y-7503994D02*
X10540572Y-7523041D01*
X10540572Y-7523041D02*
X10531049Y-7532565D01*
X10531049Y-7532565D02*
X10512001Y-7542089D01*
X10512001Y-7542089D02*
X10473906Y-7542089D01*
X10473906Y-7542089D02*
X10454858Y-7532565D01*
X10635811Y-7523041D02*
X10645334Y-7532565D01*
X10645334Y-7532565D02*
X10635811Y-7542089D01*
X10635811Y-7542089D02*
X10626287Y-7532565D01*
X10626287Y-7532565D02*
X10635811Y-7523041D01*
X10635811Y-7523041D02*
X10635811Y-7542089D01*
X10635811Y-7418279D02*
X10645334Y-7427803D01*
X10645334Y-7427803D02*
X10635811Y-7437327D01*
X10635811Y-7437327D02*
X10626287Y-7427803D01*
X10626287Y-7427803D02*
X10635811Y-7418279D01*
X10635811Y-7418279D02*
X10635811Y-7437327D01*
X8803605Y-7770605D02*
X9003605Y-7970605D01*
X9003605Y-7770605D02*
X8803605Y-7970605D01*
X9254858Y-7781136D02*
X9264382Y-7771613D01*
X9264382Y-7771613D02*
X9283430Y-7762089D01*
X9283430Y-7762089D02*
X9331049Y-7762089D01*
X9331049Y-7762089D02*
X9350096Y-7771613D01*
X9350096Y-7771613D02*
X9359620Y-7781136D01*
X9359620Y-7781136D02*
X9369144Y-7800184D01*
X9369144Y-7800184D02*
X9369144Y-7819232D01*
X9369144Y-7819232D02*
X9359620Y-7847803D01*
X9359620Y-7847803D02*
X9245334Y-7962089D01*
X9245334Y-7962089D02*
X9369144Y-7962089D01*
X9454858Y-7943041D02*
X9464382Y-7952565D01*
X9464382Y-7952565D02*
X9454858Y-7962089D01*
X9454858Y-7962089D02*
X9445334Y-7952565D01*
X9445334Y-7952565D02*
X9454858Y-7943041D01*
X9454858Y-7943041D02*
X9454858Y-7962089D01*
X9540572Y-7781136D02*
X9550096Y-7771613D01*
X9550096Y-7771613D02*
X9569144Y-7762089D01*
X9569144Y-7762089D02*
X9616763Y-7762089D01*
X9616763Y-7762089D02*
X9635811Y-7771613D01*
X9635811Y-7771613D02*
X9645334Y-7781136D01*
X9645334Y-7781136D02*
X9654858Y-7800184D01*
X9654858Y-7800184D02*
X9654858Y-7819232D01*
X9654858Y-7819232D02*
X9645334Y-7847803D01*
X9645334Y-7847803D02*
X9531049Y-7962089D01*
X9531049Y-7962089D02*
X9654858Y-7962089D01*
X9778668Y-7762089D02*
X9797715Y-7762089D01*
X9797715Y-7762089D02*
X9816763Y-7771613D01*
X9816763Y-7771613D02*
X9826287Y-7781136D01*
X9826287Y-7781136D02*
X9835811Y-7800184D01*
X9835811Y-7800184D02*
X9845334Y-7838279D01*
X9845334Y-7838279D02*
X9845334Y-7885898D01*
X9845334Y-7885898D02*
X9835811Y-7923994D01*
X9835811Y-7923994D02*
X9826287Y-7943041D01*
X9826287Y-7943041D02*
X9816763Y-7952565D01*
X9816763Y-7952565D02*
X9797715Y-7962089D01*
X9797715Y-7962089D02*
X9778668Y-7962089D01*
X9778668Y-7962089D02*
X9759620Y-7952565D01*
X9759620Y-7952565D02*
X9750096Y-7943041D01*
X9750096Y-7943041D02*
X9740572Y-7923994D01*
X9740572Y-7923994D02*
X9731049Y-7885898D01*
X9731049Y-7885898D02*
X9731049Y-7838279D01*
X9731049Y-7838279D02*
X9740572Y-7800184D01*
X9740572Y-7800184D02*
X9750096Y-7781136D01*
X9750096Y-7781136D02*
X9759620Y-7771613D01*
X9759620Y-7771613D02*
X9778668Y-7762089D01*
X9969144Y-7762089D02*
X9988192Y-7762089D01*
X9988192Y-7762089D02*
X10007239Y-7771613D01*
X10007239Y-7771613D02*
X10016763Y-7781136D01*
X10016763Y-7781136D02*
X10026287Y-7800184D01*
X10026287Y-7800184D02*
X10035811Y-7838279D01*
X10035811Y-7838279D02*
X10035811Y-7885898D01*
X10035811Y-7885898D02*
X10026287Y-7923994D01*
X10026287Y-7923994D02*
X10016763Y-7943041D01*
X10016763Y-7943041D02*
X10007239Y-7952565D01*
X10007239Y-7952565D02*
X9988192Y-7962089D01*
X9988192Y-7962089D02*
X9969144Y-7962089D01*
X9969144Y-7962089D02*
X9950096Y-7952565D01*
X9950096Y-7952565D02*
X9940572Y-7943041D01*
X9940572Y-7943041D02*
X9931049Y-7923994D01*
X9931049Y-7923994D02*
X9921525Y-7885898D01*
X9921525Y-7885898D02*
X9921525Y-7838279D01*
X9921525Y-7838279D02*
X9931049Y-7800184D01*
X9931049Y-7800184D02*
X9940572Y-7781136D01*
X9940572Y-7781136D02*
X9950096Y-7771613D01*
X9950096Y-7771613D02*
X9969144Y-7762089D01*
X10121525Y-7962089D02*
X10121525Y-7828755D01*
X10121525Y-7847803D02*
X10131049Y-7838279D01*
X10131049Y-7838279D02*
X10150096Y-7828755D01*
X10150096Y-7828755D02*
X10178668Y-7828755D01*
X10178668Y-7828755D02*
X10197715Y-7838279D01*
X10197715Y-7838279D02*
X10207239Y-7857327D01*
X10207239Y-7857327D02*
X10207239Y-7962089D01*
X10207239Y-7857327D02*
X10216763Y-7838279D01*
X10216763Y-7838279D02*
X10235811Y-7828755D01*
X10235811Y-7828755D02*
X10264382Y-7828755D01*
X10264382Y-7828755D02*
X10283430Y-7838279D01*
X10283430Y-7838279D02*
X10292953Y-7857327D01*
X10292953Y-7857327D02*
X10292953Y-7962089D01*
X10388192Y-7962089D02*
X10388192Y-7828755D01*
X10388192Y-7847803D02*
X10397715Y-7838279D01*
X10397715Y-7838279D02*
X10416763Y-7828755D01*
X10416763Y-7828755D02*
X10445334Y-7828755D01*
X10445334Y-7828755D02*
X10464382Y-7838279D01*
X10464382Y-7838279D02*
X10473906Y-7857327D01*
X10473906Y-7857327D02*
X10473906Y-7962089D01*
X10473906Y-7857327D02*
X10483430Y-7838279D01*
X10483430Y-7838279D02*
X10502477Y-7828755D01*
X10502477Y-7828755D02*
X10531049Y-7828755D01*
X10531049Y-7828755D02*
X10550096Y-7838279D01*
X10550096Y-7838279D02*
X10559620Y-7857327D01*
X10559620Y-7857327D02*
X10559620Y-7962089D01*
X10950096Y-7752565D02*
X10778668Y-8009708D01*
X11207239Y-7762089D02*
X11226287Y-7762089D01*
X11226287Y-7762089D02*
X11245334Y-7771613D01*
X11245334Y-7771613D02*
X11254858Y-7781136D01*
X11254858Y-7781136D02*
X11264382Y-7800184D01*
X11264382Y-7800184D02*
X11273906Y-7838279D01*
X11273906Y-7838279D02*
X11273906Y-7885898D01*
X11273906Y-7885898D02*
X11264382Y-7923994D01*
X11264382Y-7923994D02*
X11254858Y-7943041D01*
X11254858Y-7943041D02*
X11245334Y-7952565D01*
X11245334Y-7952565D02*
X11226287Y-7962089D01*
X11226287Y-7962089D02*
X11207239Y-7962089D01*
X11207239Y-7962089D02*
X11188192Y-7952565D01*
X11188192Y-7952565D02*
X11178668Y-7943041D01*
X11178668Y-7943041D02*
X11169144Y-7923994D01*
X11169144Y-7923994D02*
X11159620Y-7885898D01*
X11159620Y-7885898D02*
X11159620Y-7838279D01*
X11159620Y-7838279D02*
X11169144Y-7800184D01*
X11169144Y-7800184D02*
X11178668Y-7781136D01*
X11178668Y-7781136D02*
X11188192Y-7771613D01*
X11188192Y-7771613D02*
X11207239Y-7762089D01*
X11359620Y-7943041D02*
X11369144Y-7952565D01*
X11369144Y-7952565D02*
X11359620Y-7962089D01*
X11359620Y-7962089D02*
X11350096Y-7952565D01*
X11350096Y-7952565D02*
X11359620Y-7943041D01*
X11359620Y-7943041D02*
X11359620Y-7962089D01*
X11492953Y-7762089D02*
X11512001Y-7762089D01*
X11512001Y-7762089D02*
X11531049Y-7771613D01*
X11531049Y-7771613D02*
X11540573Y-7781136D01*
X11540573Y-7781136D02*
X11550096Y-7800184D01*
X11550096Y-7800184D02*
X11559620Y-7838279D01*
X11559620Y-7838279D02*
X11559620Y-7885898D01*
X11559620Y-7885898D02*
X11550096Y-7923994D01*
X11550096Y-7923994D02*
X11540573Y-7943041D01*
X11540573Y-7943041D02*
X11531049Y-7952565D01*
X11531049Y-7952565D02*
X11512001Y-7962089D01*
X11512001Y-7962089D02*
X11492953Y-7962089D01*
X11492953Y-7962089D02*
X11473906Y-7952565D01*
X11473906Y-7952565D02*
X11464382Y-7943041D01*
X11464382Y-7943041D02*
X11454858Y-7923994D01*
X11454858Y-7923994D02*
X11445334Y-7885898D01*
X11445334Y-7885898D02*
X11445334Y-7838279D01*
X11445334Y-7838279D02*
X11454858Y-7800184D01*
X11454858Y-7800184D02*
X11464382Y-7781136D01*
X11464382Y-7781136D02*
X11473906Y-7771613D01*
X11473906Y-7771613D02*
X11492953Y-7762089D01*
X11673906Y-7847803D02*
X11654858Y-7838279D01*
X11654858Y-7838279D02*
X11645334Y-7828755D01*
X11645334Y-7828755D02*
X11635811Y-7809708D01*
X11635811Y-7809708D02*
X11635811Y-7800184D01*
X11635811Y-7800184D02*
X11645334Y-7781136D01*
X11645334Y-7781136D02*
X11654858Y-7771613D01*
X11654858Y-7771613D02*
X11673906Y-7762089D01*
X11673906Y-7762089D02*
X11712001Y-7762089D01*
X11712001Y-7762089D02*
X11731049Y-7771613D01*
X11731049Y-7771613D02*
X11740573Y-7781136D01*
X11740573Y-7781136D02*
X11750096Y-7800184D01*
X11750096Y-7800184D02*
X11750096Y-7809708D01*
X11750096Y-7809708D02*
X11740573Y-7828755D01*
X11740573Y-7828755D02*
X11731049Y-7838279D01*
X11731049Y-7838279D02*
X11712001Y-7847803D01*
X11712001Y-7847803D02*
X11673906Y-7847803D01*
X11673906Y-7847803D02*
X11654858Y-7857327D01*
X11654858Y-7857327D02*
X11645334Y-7866851D01*
X11645334Y-7866851D02*
X11635811Y-7885898D01*
X11635811Y-7885898D02*
X11635811Y-7923994D01*
X11635811Y-7923994D02*
X11645334Y-7943041D01*
X11645334Y-7943041D02*
X11654858Y-7952565D01*
X11654858Y-7952565D02*
X11673906Y-7962089D01*
X11673906Y-7962089D02*
X11712001Y-7962089D01*
X11712001Y-7962089D02*
X11731049Y-7952565D01*
X11731049Y-7952565D02*
X11740573Y-7943041D01*
X11740573Y-7943041D02*
X11750096Y-7923994D01*
X11750096Y-7923994D02*
X11750096Y-7885898D01*
X11750096Y-7885898D02*
X11740573Y-7866851D01*
X11740573Y-7866851D02*
X11731049Y-7857327D01*
X11731049Y-7857327D02*
X11712001Y-7847803D01*
X11921525Y-7762089D02*
X11883430Y-7762089D01*
X11883430Y-7762089D02*
X11864382Y-7771613D01*
X11864382Y-7771613D02*
X11854858Y-7781136D01*
X11854858Y-7781136D02*
X11835811Y-7809708D01*
X11835811Y-7809708D02*
X11826287Y-7847803D01*
X11826287Y-7847803D02*
X11826287Y-7923994D01*
X11826287Y-7923994D02*
X11835811Y-7943041D01*
X11835811Y-7943041D02*
X11845334Y-7952565D01*
X11845334Y-7952565D02*
X11864382Y-7962089D01*
X11864382Y-7962089D02*
X11902477Y-7962089D01*
X11902477Y-7962089D02*
X11921525Y-7952565D01*
X11921525Y-7952565D02*
X11931049Y-7943041D01*
X11931049Y-7943041D02*
X11940573Y-7923994D01*
X11940573Y-7923994D02*
X11940573Y-7876375D01*
X11940573Y-7876375D02*
X11931049Y-7857327D01*
X11931049Y-7857327D02*
X11921525Y-7847803D01*
X11921525Y-7847803D02*
X11902477Y-7838279D01*
X11902477Y-7838279D02*
X11864382Y-7838279D01*
X11864382Y-7838279D02*
X11845334Y-7847803D01*
X11845334Y-7847803D02*
X11835811Y-7857327D01*
X11835811Y-7857327D02*
X11826287Y-7876375D01*
X12112001Y-7762089D02*
X12073906Y-7762089D01*
X12073906Y-7762089D02*
X12054858Y-7771613D01*
X12054858Y-7771613D02*
X12045334Y-7781136D01*
X12045334Y-7781136D02*
X12026287Y-7809708D01*
X12026287Y-7809708D02*
X12016763Y-7847803D01*
X12016763Y-7847803D02*
X12016763Y-7923994D01*
X12016763Y-7923994D02*
X12026287Y-7943041D01*
X12026287Y-7943041D02*
X12035811Y-7952565D01*
X12035811Y-7952565D02*
X12054858Y-7962089D01*
X12054858Y-7962089D02*
X12092954Y-7962089D01*
X12092954Y-7962089D02*
X12112001Y-7952565D01*
X12112001Y-7952565D02*
X12121525Y-7943041D01*
X12121525Y-7943041D02*
X12131049Y-7923994D01*
X12131049Y-7923994D02*
X12131049Y-7876375D01*
X12131049Y-7876375D02*
X12121525Y-7857327D01*
X12121525Y-7857327D02*
X12112001Y-7847803D01*
X12112001Y-7847803D02*
X12092954Y-7838279D01*
X12092954Y-7838279D02*
X12054858Y-7838279D01*
X12054858Y-7838279D02*
X12035811Y-7847803D01*
X12035811Y-7847803D02*
X12026287Y-7857327D01*
X12026287Y-7857327D02*
X12016763Y-7876375D01*
X12207239Y-7762089D02*
X12207239Y-7800184D01*
X12283430Y-7762089D02*
X12283430Y-7800184D01*
X12578668Y-8038279D02*
X12569144Y-8028755D01*
X12569144Y-8028755D02*
X12550096Y-8000184D01*
X12550096Y-8000184D02*
X12540573Y-7981136D01*
X12540573Y-7981136D02*
X12531049Y-7952565D01*
X12531049Y-7952565D02*
X12521525Y-7904946D01*
X12521525Y-7904946D02*
X12521525Y-7866851D01*
X12521525Y-7866851D02*
X12531049Y-7819232D01*
X12531049Y-7819232D02*
X12540573Y-7790660D01*
X12540573Y-7790660D02*
X12550096Y-7771613D01*
X12550096Y-7771613D02*
X12569144Y-7743041D01*
X12569144Y-7743041D02*
X12578668Y-7733517D01*
X12740573Y-7828755D02*
X12740573Y-7962089D01*
X12692954Y-7752565D02*
X12645335Y-7895422D01*
X12645335Y-7895422D02*
X12769144Y-7895422D01*
X12997716Y-7962089D02*
X12997716Y-7762089D01*
X13083430Y-7962089D02*
X13083430Y-7857327D01*
X13083430Y-7857327D02*
X13073906Y-7838279D01*
X13073906Y-7838279D02*
X13054858Y-7828755D01*
X13054858Y-7828755D02*
X13026287Y-7828755D01*
X13026287Y-7828755D02*
X13007239Y-7838279D01*
X13007239Y-7838279D02*
X12997716Y-7847803D01*
X13207239Y-7962089D02*
X13188192Y-7952565D01*
X13188192Y-7952565D02*
X13178668Y-7943041D01*
X13178668Y-7943041D02*
X13169144Y-7923994D01*
X13169144Y-7923994D02*
X13169144Y-7866851D01*
X13169144Y-7866851D02*
X13178668Y-7847803D01*
X13178668Y-7847803D02*
X13188192Y-7838279D01*
X13188192Y-7838279D02*
X13207239Y-7828755D01*
X13207239Y-7828755D02*
X13235811Y-7828755D01*
X13235811Y-7828755D02*
X13254858Y-7838279D01*
X13254858Y-7838279D02*
X13264382Y-7847803D01*
X13264382Y-7847803D02*
X13273906Y-7866851D01*
X13273906Y-7866851D02*
X13273906Y-7923994D01*
X13273906Y-7923994D02*
X13264382Y-7943041D01*
X13264382Y-7943041D02*
X13254858Y-7952565D01*
X13254858Y-7952565D02*
X13235811Y-7962089D01*
X13235811Y-7962089D02*
X13207239Y-7962089D01*
X13388192Y-7962089D02*
X13369144Y-7952565D01*
X13369144Y-7952565D02*
X13359620Y-7933517D01*
X13359620Y-7933517D02*
X13359620Y-7762089D01*
X13540573Y-7952565D02*
X13521525Y-7962089D01*
X13521525Y-7962089D02*
X13483430Y-7962089D01*
X13483430Y-7962089D02*
X13464382Y-7952565D01*
X13464382Y-7952565D02*
X13454858Y-7933517D01*
X13454858Y-7933517D02*
X13454858Y-7857327D01*
X13454858Y-7857327D02*
X13464382Y-7838279D01*
X13464382Y-7838279D02*
X13483430Y-7828755D01*
X13483430Y-7828755D02*
X13521525Y-7828755D01*
X13521525Y-7828755D02*
X13540573Y-7838279D01*
X13540573Y-7838279D02*
X13550097Y-7857327D01*
X13550097Y-7857327D02*
X13550097Y-7876375D01*
X13550097Y-7876375D02*
X13454858Y-7895422D01*
X13626287Y-7952565D02*
X13645335Y-7962089D01*
X13645335Y-7962089D02*
X13683430Y-7962089D01*
X13683430Y-7962089D02*
X13702478Y-7952565D01*
X13702478Y-7952565D02*
X13712001Y-7933517D01*
X13712001Y-7933517D02*
X13712001Y-7923994D01*
X13712001Y-7923994D02*
X13702478Y-7904946D01*
X13702478Y-7904946D02*
X13683430Y-7895422D01*
X13683430Y-7895422D02*
X13654858Y-7895422D01*
X13654858Y-7895422D02*
X13635811Y-7885898D01*
X13635811Y-7885898D02*
X13626287Y-7866851D01*
X13626287Y-7866851D02*
X13626287Y-7857327D01*
X13626287Y-7857327D02*
X13635811Y-7838279D01*
X13635811Y-7838279D02*
X13654858Y-7828755D01*
X13654858Y-7828755D02*
X13683430Y-7828755D01*
X13683430Y-7828755D02*
X13702478Y-7838279D01*
X13778668Y-8038279D02*
X13788192Y-8028755D01*
X13788192Y-8028755D02*
X13807239Y-8000184D01*
X13807239Y-8000184D02*
X13816763Y-7981136D01*
X13816763Y-7981136D02*
X13826287Y-7952565D01*
X13826287Y-7952565D02*
X13835811Y-7904946D01*
X13835811Y-7904946D02*
X13835811Y-7866851D01*
X13835811Y-7866851D02*
X13826287Y-7819232D01*
X13826287Y-7819232D02*
X13816763Y-7790660D01*
X13816763Y-7790660D02*
X13807239Y-7771613D01*
X13807239Y-7771613D02*
X13788192Y-7743041D01*
X13788192Y-7743041D02*
X13778668Y-7733517D01*
X14140573Y-8038279D02*
X14131049Y-8028755D01*
X14131049Y-8028755D02*
X14112001Y-8000184D01*
X14112001Y-8000184D02*
X14102478Y-7981136D01*
X14102478Y-7981136D02*
X14092954Y-7952565D01*
X14092954Y-7952565D02*
X14083430Y-7904946D01*
X14083430Y-7904946D02*
X14083430Y-7866851D01*
X14083430Y-7866851D02*
X14092954Y-7819232D01*
X14092954Y-7819232D02*
X14102478Y-7790660D01*
X14102478Y-7790660D02*
X14112001Y-7771613D01*
X14112001Y-7771613D02*
X14131049Y-7743041D01*
X14131049Y-7743041D02*
X14140573Y-7733517D01*
X14216763Y-7828755D02*
X14216763Y-7962089D01*
X14216763Y-7847803D02*
X14226287Y-7838279D01*
X14226287Y-7838279D02*
X14245335Y-7828755D01*
X14245335Y-7828755D02*
X14273906Y-7828755D01*
X14273906Y-7828755D02*
X14292954Y-7838279D01*
X14292954Y-7838279D02*
X14302478Y-7857327D01*
X14302478Y-7857327D02*
X14302478Y-7962089D01*
X14426287Y-7962089D02*
X14407239Y-7952565D01*
X14407239Y-7952565D02*
X14397716Y-7943041D01*
X14397716Y-7943041D02*
X14388192Y-7923994D01*
X14388192Y-7923994D02*
X14388192Y-7866851D01*
X14388192Y-7866851D02*
X14397716Y-7847803D01*
X14397716Y-7847803D02*
X14407239Y-7838279D01*
X14407239Y-7838279D02*
X14426287Y-7828755D01*
X14426287Y-7828755D02*
X14454859Y-7828755D01*
X14454859Y-7828755D02*
X14473906Y-7838279D01*
X14473906Y-7838279D02*
X14483430Y-7847803D01*
X14483430Y-7847803D02*
X14492954Y-7866851D01*
X14492954Y-7866851D02*
X14492954Y-7923994D01*
X14492954Y-7923994D02*
X14483430Y-7943041D01*
X14483430Y-7943041D02*
X14473906Y-7952565D01*
X14473906Y-7952565D02*
X14454859Y-7962089D01*
X14454859Y-7962089D02*
X14426287Y-7962089D01*
X14550097Y-7828755D02*
X14626287Y-7828755D01*
X14578668Y-7762089D02*
X14578668Y-7933517D01*
X14578668Y-7933517D02*
X14588192Y-7952565D01*
X14588192Y-7952565D02*
X14607239Y-7962089D01*
X14607239Y-7962089D02*
X14626287Y-7962089D01*
X14845335Y-7828755D02*
X14845335Y-8028755D01*
X14845335Y-7838279D02*
X14864382Y-7828755D01*
X14864382Y-7828755D02*
X14902478Y-7828755D01*
X14902478Y-7828755D02*
X14921525Y-7838279D01*
X14921525Y-7838279D02*
X14931049Y-7847803D01*
X14931049Y-7847803D02*
X14940573Y-7866851D01*
X14940573Y-7866851D02*
X14940573Y-7923994D01*
X14940573Y-7923994D02*
X14931049Y-7943041D01*
X14931049Y-7943041D02*
X14921525Y-7952565D01*
X14921525Y-7952565D02*
X14902478Y-7962089D01*
X14902478Y-7962089D02*
X14864382Y-7962089D01*
X14864382Y-7962089D02*
X14845335Y-7952565D01*
X15054859Y-7962089D02*
X15035811Y-7952565D01*
X15035811Y-7952565D02*
X15026287Y-7933517D01*
X15026287Y-7933517D02*
X15026287Y-7762089D01*
X15216763Y-7962089D02*
X15216763Y-7857327D01*
X15216763Y-7857327D02*
X15207240Y-7838279D01*
X15207240Y-7838279D02*
X15188192Y-7828755D01*
X15188192Y-7828755D02*
X15150097Y-7828755D01*
X15150097Y-7828755D02*
X15131049Y-7838279D01*
X15216763Y-7952565D02*
X15197716Y-7962089D01*
X15197716Y-7962089D02*
X15150097Y-7962089D01*
X15150097Y-7962089D02*
X15131049Y-7952565D01*
X15131049Y-7952565D02*
X15121525Y-7933517D01*
X15121525Y-7933517D02*
X15121525Y-7914470D01*
X15121525Y-7914470D02*
X15131049Y-7895422D01*
X15131049Y-7895422D02*
X15150097Y-7885898D01*
X15150097Y-7885898D02*
X15197716Y-7885898D01*
X15197716Y-7885898D02*
X15216763Y-7876375D01*
X15283430Y-7828755D02*
X15359620Y-7828755D01*
X15312001Y-7762089D02*
X15312001Y-7933517D01*
X15312001Y-7933517D02*
X15321525Y-7952565D01*
X15321525Y-7952565D02*
X15340573Y-7962089D01*
X15340573Y-7962089D02*
X15359620Y-7962089D01*
X15502478Y-7952565D02*
X15483430Y-7962089D01*
X15483430Y-7962089D02*
X15445335Y-7962089D01*
X15445335Y-7962089D02*
X15426287Y-7952565D01*
X15426287Y-7952565D02*
X15416763Y-7933517D01*
X15416763Y-7933517D02*
X15416763Y-7857327D01*
X15416763Y-7857327D02*
X15426287Y-7838279D01*
X15426287Y-7838279D02*
X15445335Y-7828755D01*
X15445335Y-7828755D02*
X15483430Y-7828755D01*
X15483430Y-7828755D02*
X15502478Y-7838279D01*
X15502478Y-7838279D02*
X15512001Y-7857327D01*
X15512001Y-7857327D02*
X15512001Y-7876375D01*
X15512001Y-7876375D02*
X15416763Y-7895422D01*
X15683430Y-7962089D02*
X15683430Y-7762089D01*
X15683430Y-7952565D02*
X15664382Y-7962089D01*
X15664382Y-7962089D02*
X15626287Y-7962089D01*
X15626287Y-7962089D02*
X15607240Y-7952565D01*
X15607240Y-7952565D02*
X15597716Y-7943041D01*
X15597716Y-7943041D02*
X15588192Y-7923994D01*
X15588192Y-7923994D02*
X15588192Y-7866851D01*
X15588192Y-7866851D02*
X15597716Y-7847803D01*
X15597716Y-7847803D02*
X15607240Y-7838279D01*
X15607240Y-7838279D02*
X15626287Y-7828755D01*
X15626287Y-7828755D02*
X15664382Y-7828755D01*
X15664382Y-7828755D02*
X15683430Y-7838279D01*
X15759621Y-8038279D02*
X15769144Y-8028755D01*
X15769144Y-8028755D02*
X15788192Y-8000184D01*
X15788192Y-8000184D02*
X15797716Y-7981136D01*
X15797716Y-7981136D02*
X15807240Y-7952565D01*
X15807240Y-7952565D02*
X15816763Y-7904946D01*
X15816763Y-7904946D02*
X15816763Y-7866851D01*
X15816763Y-7866851D02*
X15807240Y-7819232D01*
X15807240Y-7819232D02*
X15797716Y-7790660D01*
X15797716Y-7790660D02*
X15788192Y-7771613D01*
X15788192Y-7771613D02*
X15769144Y-7743041D01*
X15769144Y-7743041D02*
X15759621Y-7733517D01*
M02*
