G04 #@! TF.GenerationSoftware,KiCad,Pcbnew,8.0.3*
G04 #@! TF.CreationDate,2025-02-02T16:59:22+13:00*
G04 #@! TF.ProjectId,wii-nunchuk-pcb,7769692d-6e75-46e6-9368-756b2d706362,rev?*
G04 #@! TF.SameCoordinates,Original*
G04 #@! TF.FileFunction,Legend,Top*
G04 #@! TF.FilePolarity,Positive*
%FSLAX46Y46*%
G04 Gerber Fmt 4.6, Leading zero omitted, Abs format (unit mm)*
G04 Created by KiCad (PCBNEW 8.0.3) date 2025-02-02 16:59:22*
%MOMM*%
%LPD*%
G01*
G04 APERTURE LIST*
%ADD10C,0.100000*%
%ADD11C,0.120000*%
%ADD12C,2.200000*%
%ADD13R,1.700000X1.700000*%
%ADD14O,1.700000X1.700000*%
%ADD15R,1.300000X7.600000*%
G04 APERTURE END LIST*
D10*
X102147762Y-56678800D02*
X102219190Y-56702609D01*
X102219190Y-56702609D02*
X102338238Y-56702609D01*
X102338238Y-56702609D02*
X102385857Y-56678800D01*
X102385857Y-56678800D02*
X102409666Y-56654990D01*
X102409666Y-56654990D02*
X102433476Y-56607371D01*
X102433476Y-56607371D02*
X102433476Y-56559752D01*
X102433476Y-56559752D02*
X102409666Y-56512133D01*
X102409666Y-56512133D02*
X102385857Y-56488323D01*
X102385857Y-56488323D02*
X102338238Y-56464514D01*
X102338238Y-56464514D02*
X102243000Y-56440704D01*
X102243000Y-56440704D02*
X102195381Y-56416895D01*
X102195381Y-56416895D02*
X102171571Y-56393085D01*
X102171571Y-56393085D02*
X102147762Y-56345466D01*
X102147762Y-56345466D02*
X102147762Y-56297847D01*
X102147762Y-56297847D02*
X102171571Y-56250228D01*
X102171571Y-56250228D02*
X102195381Y-56226419D01*
X102195381Y-56226419D02*
X102243000Y-56202609D01*
X102243000Y-56202609D02*
X102362047Y-56202609D01*
X102362047Y-56202609D02*
X102433476Y-56226419D01*
X102933475Y-56654990D02*
X102909666Y-56678800D01*
X102909666Y-56678800D02*
X102838237Y-56702609D01*
X102838237Y-56702609D02*
X102790618Y-56702609D01*
X102790618Y-56702609D02*
X102719190Y-56678800D01*
X102719190Y-56678800D02*
X102671571Y-56631180D01*
X102671571Y-56631180D02*
X102647761Y-56583561D01*
X102647761Y-56583561D02*
X102623952Y-56488323D01*
X102623952Y-56488323D02*
X102623952Y-56416895D01*
X102623952Y-56416895D02*
X102647761Y-56321657D01*
X102647761Y-56321657D02*
X102671571Y-56274038D01*
X102671571Y-56274038D02*
X102719190Y-56226419D01*
X102719190Y-56226419D02*
X102790618Y-56202609D01*
X102790618Y-56202609D02*
X102838237Y-56202609D01*
X102838237Y-56202609D02*
X102909666Y-56226419D01*
X102909666Y-56226419D02*
X102933475Y-56250228D01*
X103385856Y-56702609D02*
X103147761Y-56702609D01*
X103147761Y-56702609D02*
X103147761Y-56202609D01*
X97055858Y-56678800D02*
X97127286Y-56702609D01*
X97127286Y-56702609D02*
X97246334Y-56702609D01*
X97246334Y-56702609D02*
X97293953Y-56678800D01*
X97293953Y-56678800D02*
X97317762Y-56654990D01*
X97317762Y-56654990D02*
X97341572Y-56607371D01*
X97341572Y-56607371D02*
X97341572Y-56559752D01*
X97341572Y-56559752D02*
X97317762Y-56512133D01*
X97317762Y-56512133D02*
X97293953Y-56488323D01*
X97293953Y-56488323D02*
X97246334Y-56464514D01*
X97246334Y-56464514D02*
X97151096Y-56440704D01*
X97151096Y-56440704D02*
X97103477Y-56416895D01*
X97103477Y-56416895D02*
X97079667Y-56393085D01*
X97079667Y-56393085D02*
X97055858Y-56345466D01*
X97055858Y-56345466D02*
X97055858Y-56297847D01*
X97055858Y-56297847D02*
X97079667Y-56250228D01*
X97079667Y-56250228D02*
X97103477Y-56226419D01*
X97103477Y-56226419D02*
X97151096Y-56202609D01*
X97151096Y-56202609D02*
X97270143Y-56202609D01*
X97270143Y-56202609D02*
X97341572Y-56226419D01*
X97555857Y-56702609D02*
X97555857Y-56202609D01*
X97555857Y-56202609D02*
X97674905Y-56202609D01*
X97674905Y-56202609D02*
X97746333Y-56226419D01*
X97746333Y-56226419D02*
X97793952Y-56274038D01*
X97793952Y-56274038D02*
X97817762Y-56321657D01*
X97817762Y-56321657D02*
X97841571Y-56416895D01*
X97841571Y-56416895D02*
X97841571Y-56488323D01*
X97841571Y-56488323D02*
X97817762Y-56583561D01*
X97817762Y-56583561D02*
X97793952Y-56631180D01*
X97793952Y-56631180D02*
X97746333Y-56678800D01*
X97746333Y-56678800D02*
X97674905Y-56702609D01*
X97674905Y-56702609D02*
X97555857Y-56702609D01*
X98032048Y-56559752D02*
X98270143Y-56559752D01*
X97984429Y-56702609D02*
X98151095Y-56202609D01*
X98151095Y-56202609D02*
X98317762Y-56702609D01*
X99822047Y-56226419D02*
X99774428Y-56202609D01*
X99774428Y-56202609D02*
X99702999Y-56202609D01*
X99702999Y-56202609D02*
X99631571Y-56226419D01*
X99631571Y-56226419D02*
X99583952Y-56274038D01*
X99583952Y-56274038D02*
X99560142Y-56321657D01*
X99560142Y-56321657D02*
X99536333Y-56416895D01*
X99536333Y-56416895D02*
X99536333Y-56488323D01*
X99536333Y-56488323D02*
X99560142Y-56583561D01*
X99560142Y-56583561D02*
X99583952Y-56631180D01*
X99583952Y-56631180D02*
X99631571Y-56678800D01*
X99631571Y-56678800D02*
X99702999Y-56702609D01*
X99702999Y-56702609D02*
X99750618Y-56702609D01*
X99750618Y-56702609D02*
X99822047Y-56678800D01*
X99822047Y-56678800D02*
X99845856Y-56654990D01*
X99845856Y-56654990D02*
X99845856Y-56488323D01*
X99845856Y-56488323D02*
X99750618Y-56488323D01*
X100060142Y-56702609D02*
X100060142Y-56202609D01*
X100060142Y-56202609D02*
X100345856Y-56702609D01*
X100345856Y-56702609D02*
X100345856Y-56202609D01*
X100583952Y-56702609D02*
X100583952Y-56202609D01*
X100583952Y-56202609D02*
X100703000Y-56202609D01*
X100703000Y-56202609D02*
X100774428Y-56226419D01*
X100774428Y-56226419D02*
X100822047Y-56274038D01*
X100822047Y-56274038D02*
X100845857Y-56321657D01*
X100845857Y-56321657D02*
X100869666Y-56416895D01*
X100869666Y-56416895D02*
X100869666Y-56488323D01*
X100869666Y-56488323D02*
X100845857Y-56583561D01*
X100845857Y-56583561D02*
X100822047Y-56631180D01*
X100822047Y-56631180D02*
X100774428Y-56678800D01*
X100774428Y-56678800D02*
X100703000Y-56702609D01*
X100703000Y-56702609D02*
X100583952Y-56702609D01*
X99586289Y-61993470D02*
X99586289Y-60993470D01*
X99586289Y-60993470D02*
X100157717Y-61993470D01*
X100157717Y-61993470D02*
X100157717Y-60993470D01*
X100776765Y-61993470D02*
X100681527Y-61945851D01*
X100681527Y-61945851D02*
X100633908Y-61898231D01*
X100633908Y-61898231D02*
X100586289Y-61802993D01*
X100586289Y-61802993D02*
X100586289Y-61517279D01*
X100586289Y-61517279D02*
X100633908Y-61422041D01*
X100633908Y-61422041D02*
X100681527Y-61374422D01*
X100681527Y-61374422D02*
X100776765Y-61326803D01*
X100776765Y-61326803D02*
X100919622Y-61326803D01*
X100919622Y-61326803D02*
X101014860Y-61374422D01*
X101014860Y-61374422D02*
X101062479Y-61422041D01*
X101062479Y-61422041D02*
X101110098Y-61517279D01*
X101110098Y-61517279D02*
X101110098Y-61802993D01*
X101110098Y-61802993D02*
X101062479Y-61898231D01*
X101062479Y-61898231D02*
X101014860Y-61945851D01*
X101014860Y-61945851D02*
X100919622Y-61993470D01*
X100919622Y-61993470D02*
X100776765Y-61993470D01*
X101395813Y-61326803D02*
X101776765Y-61326803D01*
X101538670Y-60993470D02*
X101538670Y-61850612D01*
X101538670Y-61850612D02*
X101586289Y-61945851D01*
X101586289Y-61945851D02*
X101681527Y-61993470D01*
X101681527Y-61993470D02*
X101776765Y-61993470D01*
X102538670Y-61945851D02*
X102443432Y-61993470D01*
X102443432Y-61993470D02*
X102252956Y-61993470D01*
X102252956Y-61993470D02*
X102157718Y-61945851D01*
X102157718Y-61945851D02*
X102110099Y-61898231D01*
X102110099Y-61898231D02*
X102062480Y-61802993D01*
X102062480Y-61802993D02*
X102062480Y-61517279D01*
X102062480Y-61517279D02*
X102110099Y-61422041D01*
X102110099Y-61422041D02*
X102157718Y-61374422D01*
X102157718Y-61374422D02*
X102252956Y-61326803D01*
X102252956Y-61326803D02*
X102443432Y-61326803D01*
X102443432Y-61326803D02*
X102538670Y-61374422D01*
X102967242Y-61993470D02*
X102967242Y-60993470D01*
X103395813Y-61993470D02*
X103395813Y-61469660D01*
X103395813Y-61469660D02*
X103348194Y-61374422D01*
X103348194Y-61374422D02*
X103252956Y-61326803D01*
X103252956Y-61326803D02*
X103110099Y-61326803D01*
X103110099Y-61326803D02*
X103014861Y-61374422D01*
X103014861Y-61374422D02*
X102967242Y-61422041D01*
X104687762Y-56202609D02*
X104997286Y-56202609D01*
X104997286Y-56202609D02*
X104830619Y-56393085D01*
X104830619Y-56393085D02*
X104902048Y-56393085D01*
X104902048Y-56393085D02*
X104949667Y-56416895D01*
X104949667Y-56416895D02*
X104973476Y-56440704D01*
X104973476Y-56440704D02*
X104997286Y-56488323D01*
X104997286Y-56488323D02*
X104997286Y-56607371D01*
X104997286Y-56607371D02*
X104973476Y-56654990D01*
X104973476Y-56654990D02*
X104949667Y-56678800D01*
X104949667Y-56678800D02*
X104902048Y-56702609D01*
X104902048Y-56702609D02*
X104759191Y-56702609D01*
X104759191Y-56702609D02*
X104711572Y-56678800D01*
X104711572Y-56678800D02*
X104687762Y-56654990D01*
X105163952Y-56369276D02*
X105283000Y-56702609D01*
X105283000Y-56702609D02*
X105402047Y-56369276D01*
X105544904Y-56202609D02*
X105854428Y-56202609D01*
X105854428Y-56202609D02*
X105687761Y-56393085D01*
X105687761Y-56393085D02*
X105759190Y-56393085D01*
X105759190Y-56393085D02*
X105806809Y-56416895D01*
X105806809Y-56416895D02*
X105830618Y-56440704D01*
X105830618Y-56440704D02*
X105854428Y-56488323D01*
X105854428Y-56488323D02*
X105854428Y-56607371D01*
X105854428Y-56607371D02*
X105830618Y-56654990D01*
X105830618Y-56654990D02*
X105806809Y-56678800D01*
X105806809Y-56678800D02*
X105759190Y-56702609D01*
X105759190Y-56702609D02*
X105616333Y-56702609D01*
X105616333Y-56702609D02*
X105568714Y-56678800D01*
X105568714Y-56678800D02*
X105544904Y-56654990D01*
D11*
X96351051Y-59641051D02*
X96351051Y-58311051D01*
X97681051Y-59641051D02*
X96351051Y-59641051D01*
X98951051Y-56981051D02*
X106631051Y-56981051D01*
X98951051Y-59641051D02*
X98951051Y-56981051D01*
X98951051Y-59641051D02*
X106631051Y-59641051D01*
X106631051Y-59641051D02*
X106631051Y-56981051D01*
%LPC*%
D12*
X110381051Y-69741051D03*
X92601051Y-58311051D03*
D13*
X97681051Y-58311051D03*
D14*
X100221051Y-58311051D03*
X102761051Y-58311051D03*
X105301051Y-58311051D03*
D12*
X110381051Y-58311051D03*
X92601051Y-69741051D03*
D15*
X103491051Y-67067051D03*
X101491051Y-67067051D03*
X99491051Y-67067051D03*
%LPD*%
M02*
